<svg version="1.1" id="Layer_1" xmlns="http://www.w3.org/2000/svg" xmlns:xlink="http://www.w3.org/1999/xlink" x="0px" y="0px"
	 width="100%" viewBox="0 0 1024 1024" enable-background="new 0 0 1024 1024" xml:space="preserve">
<path fill="#D8331E" opacity="1.000000" stroke="none" 
	d="
M572.000000,1025.000000 
	C381.333344,1025.000000 191.166672,1025.000000 1.000000,1025.000000 
	C1.000000,683.666687 1.000000,342.333344 1.000000,1.000000 
	C342.333344,1.000000 683.666687,1.000000 1025.000000,1.000000 
	C1025.000000,342.333344 1025.000000,683.666687 1025.000000,1025.000000 
	C874.166687,1025.000000 723.333313,1025.000000 572.000000,1025.000000 
M391.225708,574.780212 
	C391.225708,574.780212 391.239197,574.594910 391.475006,575.116760 
	C391.773254,575.347107 392.071472,575.577393 392.240967,575.798828 
	C392.240967,575.798828 392.266815,575.672363 392.301605,576.365601 
	C393.354065,577.112061 394.406494,577.858521 395.359375,578.617371 
	C395.359375,578.617371 395.375305,578.518372 395.515228,579.199036 
	C396.440002,579.688354 397.364777,580.177734 398.198883,580.742188 
	C398.198883,580.742188 398.225555,580.627502 398.459381,581.345703 
	C400.565002,582.142578 402.670624,582.939453 404.640564,583.808472 
	C404.640564,583.808472 404.737610,583.689331 405.263275,584.296570 
	C406.454437,584.845581 407.593262,585.621216 408.844482,585.910095 
	C431.297089,591.093628 454.199036,570.635071 449.254120,545.889648 
	C448.433075,541.780884 448.351379,536.798584 443.329681,534.547302 
	C443.329681,534.547302 443.336761,534.443665 443.518036,533.764771 
	C442.823090,533.100159 442.128174,532.435486 441.191589,531.685730 
	C441.191589,531.685730 441.195679,531.429504 441.178741,531.035461 
	C441.048248,530.763794 440.832916,530.641968 440.371521,530.639221 
	C440.371521,530.639221 440.353638,530.476074 440.289978,529.975769 
	C440.034668,529.770630 439.779358,529.565552 439.648926,529.349243 
	C439.648926,529.349243 439.633240,529.473633 439.490967,528.832825 
	C438.822388,528.409546 438.153809,527.986206 438.015869,527.106689 
	C437.837982,527.255798 437.660126,527.404968 437.336304,526.963440 
	C436.836853,526.669373 436.337402,526.375305 435.957336,526.053711 
	C435.957336,526.053711 435.981262,526.173889 435.648224,525.725464 
	C435.330170,525.537476 435.012085,525.349426 434.842651,525.151062 
	C434.842651,525.151062 434.841187,525.300049 434.612701,524.633362 
	C427.443756,517.900085 418.758331,517.297363 409.708344,518.745361 
	C407.773804,519.054871 406.024353,520.520874 404.211945,521.326233 
	C404.211945,521.326233 404.334412,521.369019 403.599304,521.221802 
	C402.437927,521.911560 401.276520,522.601318 400.135132,523.168274 
	C400.135132,523.168274 400.255585,523.199585 399.525909,523.194580 
	C397.770660,524.582947 396.015381,525.971252 394.214142,527.254150 
	C394.214142,527.254150 394.316101,527.307434 393.608734,527.284119 
	C392.539551,528.670166 391.470367,530.056152 390.221405,531.235413 
	C390.221405,531.235413 390.437531,531.403748 389.989166,531.597351 
	C389.717896,531.826416 389.593872,532.118164 389.602386,532.520569 
	C389.602386,532.520569 389.566132,532.555176 388.980408,532.716309 
	C388.729675,533.231873 388.478973,533.747375 388.208557,534.166260 
	C388.208557,534.166260 388.307098,534.160889 387.887177,534.480957 
	C387.774567,534.808105 387.661957,535.135193 387.445068,535.020142 
	C387.445068,535.020142 387.571381,535.459961 386.942841,535.690430 
	C386.644379,536.488220 386.345917,537.286011 386.025269,538.014099 
	C386.025269,538.014099 386.095428,537.993408 385.610992,538.381531 
	C385.428772,538.960449 385.246552,539.539368 385.026855,540.038452 
	C385.026855,540.038452 385.107605,540.002930 384.875153,540.188354 
	C384.683472,540.456543 384.703308,540.716003 384.931274,541.739502 
	C381.200226,551.149170 382.441010,560.164856 387.070679,569.601501 
	C387.751526,570.384338 388.432404,571.167175 389.044128,571.965149 
	C389.044128,571.965149 389.058105,571.895752 389.164062,572.495789 
	C389.617615,572.849121 390.071198,573.202393 390.269318,573.800110 
	C390.269318,573.800110 390.489288,573.523376 390.612366,574.055420 
	C390.878723,574.295837 391.145081,574.536255 391.225708,574.780212 
M359.774353,380.383057 
	C359.553497,380.681519 359.332672,380.979980 359.115356,381.154877 
	C359.115356,381.154877 359.238129,381.168915 358.527161,381.223816 
	C355.815277,384.282959 353.103394,387.342102 350.305725,390.294006 
	C350.305725,390.294006 350.434998,390.340424 349.932434,390.538727 
	C349.727203,390.825623 349.521973,391.112488 349.220306,391.235596 
	C349.220306,391.235596 349.363800,391.360168 348.635529,391.333344 
	C346.817474,393.300110 344.999390,395.266876 343.172882,397.144470 
	C343.172882,397.144470 343.262390,397.148163 342.775269,397.392303 
	C342.540070,397.665802 342.304871,397.939270 342.081146,398.108093 
	C342.081146,398.108093 342.184753,398.126831 341.450836,398.123383 
	C339.683197,399.828369 337.915588,401.533356 336.150909,403.156952 
	C336.150909,403.156952 336.231049,403.171600 335.496704,403.135498 
	C334.055450,404.505737 332.614166,405.875946 331.163788,407.128876 
	C331.163788,407.128876 331.281403,407.131104 330.794922,407.379883 
	C330.550201,407.645325 330.305481,407.910767 330.074036,408.087952 
	C330.074036,408.087952 330.161133,408.107361 329.452454,408.167603 
	C328.337982,409.180969 327.223541,410.194336 326.117676,411.121735 
	C326.117676,411.121735 326.202301,411.139282 325.457153,411.109650 
	C324.352386,412.145081 323.247620,413.180481 322.138947,414.138977 
	C322.138947,414.138977 322.214569,414.153809 321.597534,414.237823 
	C321.205627,414.676117 320.813721,415.114441 320.215027,415.025635 
	C320.288361,415.201294 320.361725,415.376953 319.689606,415.395813 
	C315.161133,418.664734 310.632660,421.933655 306.117737,425.117340 
	C306.117737,425.117340 306.201111,425.139496 305.492920,425.106323 
	C304.676117,425.775421 303.859314,426.444519 303.053741,427.043427 
	C303.053741,427.043427 303.120819,427.066986 302.341064,427.043427 
	C298.858185,427.675201 295.423248,428.379211 293.627228,432.929962 
	C278.352448,439.856567 263.344696,447.479218 247.713211,453.476013 
	C236.455780,457.794769 224.378632,459.991241 212.641129,463.033997 
	C209.722565,463.790558 206.703323,464.158722 203.369568,464.771820 
	C204.070419,466.407471 204.176285,466.918091 204.463654,467.287476 
	C217.950531,484.622589 231.398178,501.989166 245.074860,519.173462 
	C246.010971,520.349609 248.973572,520.995361 250.491364,520.461060 
	C268.524414,514.112000 286.946716,508.567413 304.329773,500.732544 
	C348.879639,480.653107 386.736572,451.437531 417.691772,413.512634 
	C448.583710,375.665283 466.983124,331.700500 480.847046,285.372192 
	C488.261047,260.597260 490.862885,234.313324 503.678741,211.176376 
	C504.135834,210.351166 503.256500,208.043350 502.312042,207.296417 
	C489.775909,197.381989 477.176392,187.543991 464.410492,177.928802 
	C462.855286,176.757431 460.179840,176.443161 458.127747,176.670776 
	C449.224548,177.658325 440.359955,178.994171 430.679169,180.000778 
	C430.414642,179.922806 430.150146,179.844833 429.312439,179.297287 
	C427.066040,178.869064 424.821747,178.082657 422.572937,178.069611 
	C405.419434,177.970062 388.265015,178.025894 371.110901,178.024933 
	C315.011139,178.021805 258.911316,177.992798 202.811752,178.104050 
	C200.882233,178.107864 198.955460,179.502274 196.427734,180.535431 
	C195.128952,180.409622 193.830154,180.283813 191.697128,180.139267 
	C191.418976,180.138901 191.140808,180.138550 189.953079,180.291306 
	C187.798050,180.250183 185.643127,180.181213 183.487976,180.173004 
	C175.898361,180.144058 168.308655,180.135986 160.059631,180.333878 
	C159.394379,182.276459 158.192856,184.206650 158.147675,186.163559 
	C157.741592,203.750229 157.538651,221.341568 157.440979,239.585480 
	C160.087357,242.110245 162.926224,243.248138 166.813904,242.403900 
	C170.151718,241.679062 173.723984,241.929520 177.192688,241.927643 
	C221.444931,241.903656 265.697174,241.899734 309.949402,241.936905 
	C313.238831,241.939667 316.528595,242.468430 319.817047,242.455841 
	C329.747711,242.417770 339.677582,242.170822 349.608276,242.127991 
	C356.174072,242.099655 362.740662,242.345322 369.307068,242.355057 
	C377.921875,242.367813 386.537109,242.293533 395.151703,242.211426 
	C403.831543,242.128693 412.510834,241.990524 421.109833,242.736313 
	C418.701874,254.076385 416.539154,265.476685 413.774292,276.729065 
	C412.538910,281.756714 410.094208,286.487213 408.198303,291.352570 
	C407.672729,291.255554 407.147156,291.158539 406.621582,291.061523 
	C407.503174,291.359497 408.384766,291.657501 409.781860,292.129730 
	C407.216064,293.842804 405.994415,294.658447 405.489807,294.995361 
	C405.489807,297.320374 406.059143,299.270203 405.403107,300.627991 
	C397.480377,317.026154 389.351837,333.324707 381.351715,349.685760 
	C380.360901,351.712158 379.802246,353.949890 379.014862,356.029205 
	C379.014862,356.029205 379.081451,356.023376 378.423645,356.201843 
	C376.291718,357.651031 374.157440,359.096985 372.065674,360.601990 
	C372.047302,360.615143 372.599640,361.421509 373.001709,361.981140 
	C373.001709,361.981140 373.126068,362.096497 372.746918,362.678650 
	C372.188812,364.160248 371.630676,365.641876 371.051270,367.054199 
	C371.051270,367.054199 371.123413,367.061340 370.405731,367.084381 
	C368.132416,370.209991 365.859070,373.335602 363.470490,376.406708 
	C363.470490,376.406708 363.540649,376.513123 362.956879,376.658142 
	C362.655609,377.147675 362.354340,377.637207 362.035889,378.027435 
	C362.035889,378.027435 362.135620,378.012634 361.672577,378.300751 
	C361.458221,378.590973 361.243866,378.881226 361.012634,379.028076 
	C361.012634,379.028076 361.156158,379.012726 360.710510,379.334686 
	C360.506561,379.636993 360.302612,379.939301 360.084961,380.083557 
	C360.084961,380.083557 360.243439,380.076294 359.774353,380.383057 
M747.387512,751.280334 
	C747.387512,751.280334 747.488892,751.463623 746.977478,751.520691 
	C746.700012,751.907288 746.422546,752.293823 745.524475,753.179016 
	C742.012207,754.734375 738.500000,756.289673 734.991028,757.230347 
	C734.994568,756.820496 734.998169,756.410706 735.132019,755.927734 
	C735.132019,755.927734 735.148071,755.764404 735.148071,755.764404 
	C735.148071,755.764404 734.999023,755.998169 734.061951,756.013672 
	C720.890442,755.368713 707.722717,754.606628 694.544067,754.182312 
	C692.044312,754.101868 689.501404,755.361023 686.139709,756.112732 
	C683.661743,755.707458 681.183716,755.302124 678.502625,754.257385 
	C676.687256,753.607849 674.918579,752.703003 673.046997,752.360840 
	C668.860168,751.595337 666.671265,753.670349 667.166321,757.929260 
	C668.366699,768.255310 669.661011,778.570801 671.028137,788.875854 
	C671.121704,789.581238 672.131897,790.164978 672.952393,791.546387 
	C672.938965,792.062744 672.925598,792.579102 672.514832,793.743225 
	C672.347595,799.768494 671.984741,805.834167 676.009338,810.989380 
	C676.009338,810.989380 676.022156,810.925903 676.242249,811.636230 
	C677.662781,812.362488 679.028015,813.567078 680.512634,813.738464 
	C691.363525,814.991150 702.238464,816.036438 713.783447,817.570312 
	C724.881531,817.718567 735.979431,817.919067 747.077942,817.971619 
	C749.339844,817.982300 751.604370,817.436523 754.741211,817.086975 
	C761.564392,816.018921 768.565002,815.576355 775.160339,813.705078 
	C781.622864,811.871582 788.576721,809.972717 792.000000,803.000000 
	C792.000000,803.000000 791.971252,802.976501 792.575134,802.858582 
	C792.902466,802.383423 793.229858,801.908203 793.568298,801.549377 
	C793.568298,801.549377 793.453674,801.526672 794.121704,801.474182 
	C794.614441,800.831421 795.107239,800.188660 795.622070,799.629517 
	C795.622070,799.629517 795.535828,799.623108 796.234985,799.540161 
	C797.864380,797.940369 799.763000,796.534485 801.078308,794.708435 
	C808.172913,784.858643 812.550659,773.826294 814.519226,761.886292 
	C816.770569,748.231445 818.797852,734.539612 821.026306,720.056458 
	C821.339539,717.923950 821.718872,715.798828 821.955322,713.657776 
	C823.430359,700.301392 824.899048,686.944214 826.320496,673.582031 
	C827.899658,658.737488 829.132751,643.849060 831.059326,629.050476 
	C832.930115,614.679504 832.550659,600.164490 834.782532,585.791931 
	C836.660706,573.697021 837.071594,561.359680 837.752441,549.108582 
	C837.858826,547.193665 836.441589,544.100342 834.879395,543.370544 
	C826.972290,539.676819 818.784546,536.583801 810.812744,533.240417 
	C810.812744,533.240417 810.836548,533.362244 810.431091,532.755310 
	C808.370667,531.958435 806.310242,531.161621 804.088928,530.395752 
	C804.088928,530.395752 804.029541,530.243042 803.653931,529.722229 
	C802.868225,529.470642 802.082581,529.219116 800.533875,528.869751 
	C797.359741,527.893860 794.185669,526.917969 790.791992,525.367371 
	C784.934814,526.406860 779.077393,527.444519 773.223572,528.502747 
	C773.135925,528.518616 773.094299,528.789124 772.348328,529.106812 
	C771.885559,529.056091 771.422791,529.005432 770.367676,528.491272 
	C764.172363,527.951294 757.980347,526.996399 751.781189,526.947693 
	C731.666321,526.789673 711.548523,526.918030 691.432617,527.044617 
	C686.860718,527.073425 682.199524,527.748413 680.188721,521.232483 
	C680.470215,519.095581 680.811279,516.964539 681.023499,514.820740 
	C682.280457,502.117065 683.675049,489.423553 684.674133,476.699188 
	C685.173523,470.339874 684.932190,463.922424 684.837830,456.838013 
	C683.759338,456.267609 682.695557,455.230560 681.600159,455.195953 
	C661.743896,454.568909 641.884277,454.039185 622.023010,453.600494 
	C621.042786,453.578857 620.039978,454.575592 619.040222,455.026367 
	C619.040222,455.026367 619.103333,455.061157 618.401794,455.312042 
	C618.027466,456.811646 617.328735,458.314728 617.344971,459.810120 
	C617.380737,463.116577 618.082397,466.429291 617.973755,469.721680 
	C617.398865,487.141724 616.657104,504.556213 615.534973,522.590027 
	C615.150696,526.413269 612.797485,527.087158 609.346558,527.072083 
	C583.253723,526.957703 557.160156,527.035828 531.066956,526.972778 
	C527.936218,526.965210 524.800171,526.197693 521.678040,526.270508 
	C517.484741,526.368347 513.302490,526.941284 509.025055,527.105957 
	C509.025055,527.105957 509.230652,527.018616 508.828156,527.470276 
	C508.585999,527.792236 508.343811,528.114197 508.201324,529.313232 
	C508.097900,535.226074 507.994476,541.138855 507.200592,547.371155 
	C506.819122,548.913574 506.125366,550.452332 506.107086,551.999023 
	C505.993134,561.646667 506.201538,571.300720 505.944122,580.943054 
	C505.818085,585.664734 507.925964,587.229065 512.231567,586.980042 
	C518.358582,586.625610 524.487732,586.079285 530.617981,586.050903 
	C554.573303,585.940002 578.529358,585.993713 602.485168,586.010437 
	C604.427551,586.011780 606.369812,586.195435 608.181641,586.287659 
	C608.471924,589.189880 608.710754,591.577637 609.025330,594.795288 
	C608.171509,599.541809 607.485901,604.325806 606.438599,609.029236 
	C592.480591,671.713013 561.758484,724.335327 512.200623,765.583618 
	C503.691437,772.665955 494.961151,779.482727 486.349701,786.408813 
	C486.721283,786.938049 486.851196,787.315918 487.112396,787.467590 
	C504.274048,797.430786 520.545471,808.631042 535.543335,821.679565 
	C536.544556,822.550659 539.727295,822.288147 540.945862,821.336792 
	C581.913879,789.352600 614.364929,750.325989 636.570007,703.236694 
	C644.220642,687.012390 650.188721,669.994690 657.570984,652.935730 
	C658.127014,651.963623 658.952393,651.055115 659.199036,650.010010 
	C663.881897,630.169495 668.564087,610.328125 673.047852,590.442139 
	C673.675781,587.657166 674.238464,585.942932 677.594543,585.962280 
	C706.184998,586.127319 734.776306,586.177307 763.367310,586.226624 
	C766.279663,586.231628 769.192383,586.005676 772.967773,586.192383 
	C772.607788,595.833313 772.247742,605.474304 771.133667,615.181152 
	C770.461182,616.675354 769.401123,618.117981 769.194275,619.674072 
	C768.714722,623.282715 768.750977,626.956299 768.393555,630.585449 
	C767.344177,641.237488 766.415100,651.907593 765.056213,662.521667 
	C762.341919,683.723022 759.581055,704.923218 756.388184,726.055725 
	C755.358398,732.871887 752.915283,739.474487 751.063049,746.061035 
	C751.063049,746.061035 751.178589,746.009338 750.812073,746.400757 
	C750.728271,746.740906 750.644409,747.081055 750.553650,747.492798 
	C750.553650,747.492798 750.489319,747.525146 749.806519,747.589294 
	C749.345703,748.510742 748.884827,749.432129 748.244202,750.218750 
	C748.244202,750.218750 748.390015,750.389771 747.921631,750.598206 
	C747.757812,750.893921 747.593994,751.189697 747.387512,751.280334 
z"/>
<path fill="#FEFDFD" opacity="1.000000" stroke="none" 
	d="
M678.705750,754.896851 
	C681.183716,755.302124 683.661743,755.707458 686.787476,756.218018 
	C687.985657,756.410217 688.536194,756.497070 689.481934,756.748047 
	C697.234192,757.565002 704.591187,758.217957 712.414246,758.949341 
	C720.249390,758.633606 727.618591,758.239319 734.987732,757.844971 
	C738.500000,756.289673 742.012207,754.734375 746.061279,752.877319 
	C746.895020,752.204895 747.191956,751.834290 747.488892,751.463623 
	C747.488892,751.463623 747.387512,751.280334 747.639526,751.265991 
	C748.057678,750.964294 748.223877,750.677063 748.390015,750.389771 
	C748.390015,750.389771 748.244202,750.218750 748.578369,750.119568 
	C749.438049,749.188599 749.963684,748.356873 750.489319,747.525146 
	C750.489319,747.525146 750.553650,747.492798 750.747803,747.269287 
	C751.020874,746.700317 751.099731,746.354797 751.178589,746.009338 
	C751.178589,746.009338 751.063049,746.061035 751.366943,745.896240 
	C753.472168,740.576904 756.104431,735.552612 756.935425,730.246155 
	C761.232422,702.808777 765.242676,675.322937 768.978760,647.803162 
	C770.448792,636.975098 770.946960,626.015137 771.887695,615.115234 
	C772.247742,605.474304 772.607788,595.833313 772.266724,585.703735 
	C738.692017,585.215088 705.818298,585.215088 672.898743,585.215088 
	C669.562988,600.622070 666.312927,616.212830 662.771057,631.736938 
	C661.113037,639.004089 658.891541,646.142639 656.925415,653.339478 
	C650.188721,669.994690 644.220642,687.012390 636.570007,703.236694 
	C614.364929,750.325989 581.913879,789.352600 540.945862,821.336792 
	C539.727295,822.288147 536.544556,822.550659 535.543335,821.679565 
	C520.545471,808.631042 504.274048,797.430786 487.112396,787.467590 
	C486.851196,787.315918 486.721283,786.938049 486.349701,786.408813 
	C494.961151,779.482727 503.691437,772.665955 512.200623,765.583618 
	C561.758484,724.335327 592.480591,671.713013 606.438599,609.029236 
	C607.485901,604.325806 608.171509,599.541809 609.098145,594.018311 
	C609.551880,590.507874 609.932739,587.774353 610.344727,584.818115 
	C575.762268,584.818115 541.753418,584.818115 507.891022,584.818115 
	C507.891022,572.189758 507.891022,559.620728 507.891052,547.051697 
	C507.994476,541.138855 508.097900,535.226074 508.427521,528.716187 
	C508.846008,527.752319 509.038330,527.385437 509.230652,527.018616 
	C509.230652,527.018616 509.025055,527.105957 509.495056,527.174561 
	C514.385132,527.475769 518.805237,527.708435 523.590454,528.083984 
	C554.311096,528.456421 584.666565,528.686096 615.401978,528.884521 
	C615.863464,527.635498 615.945129,526.417786 616.351562,524.940796 
	C617.493713,514.250427 618.697083,503.831604 619.029724,493.385040 
	C619.436035,480.622589 619.111633,467.836823 619.103333,455.061157 
	C619.103333,455.061157 619.040222,455.026367 619.491394,455.059387 
	C632.040710,455.487091 644.140930,455.827576 656.236328,456.293610 
	C665.838013,456.663544 675.433838,457.187134 685.021973,458.120544 
	C684.466309,462.854126 683.759216,467.096191 683.403503,471.367493 
	C681.822327,490.354736 680.341858,509.350311 679.130005,528.650757 
	C709.943359,528.957336 740.451721,528.956055 770.960022,528.954773 
	C771.422791,529.005432 771.885559,529.056091 773.143555,529.082642 
	C775.760803,529.025146 777.641541,529.270813 779.392761,528.901611 
	C783.300049,528.078064 787.142578,526.947571 791.011536,525.942078 
	C794.185669,526.917969 797.359741,527.893860 801.142822,529.122620 
	C802.511047,529.664673 803.270264,529.953857 804.029541,530.243042 
	C804.029541,530.243042 804.088928,530.395752 804.424561,530.636475 
	C806.785645,531.705566 808.811096,532.533875 810.836548,533.362244 
	C810.836548,533.362244 810.812744,533.240417 810.966187,533.525635 
	C817.605957,536.806213 823.955017,540.167480 830.626465,542.669067 
	C835.114746,544.351990 836.056580,546.795532 835.649780,551.272339 
	C833.859863,570.970398 832.720642,590.729919 830.783447,610.411865 
	C827.153442,647.292542 823.134216,684.135010 819.096069,721.389465 
	C815.998291,749.196045 813.692139,776.789978 795.535828,799.623108 
	C795.535828,799.623108 795.622070,799.629517 795.316223,799.663940 
	C794.491455,800.307739 793.972534,800.917175 793.453674,801.526672 
	C793.453674,801.526672 793.568298,801.549377 793.291382,801.598877 
	C792.666687,802.091125 792.319031,802.533813 791.971313,802.976562 
	C791.971252,802.976501 792.000000,803.000000 791.658630,803.085083 
	C784.120178,809.178589 775.842407,812.521912 766.583374,814.037842 
	C744.917175,817.584900 723.256409,817.142700 701.575745,814.538757 
	C693.036438,813.513123 684.538757,812.140564 676.022156,810.925903 
	C676.022156,810.925903 676.009338,810.989380 675.974609,810.582031 
	C674.930664,804.481628 673.921448,798.788574 672.912170,793.095459 
	C672.925598,792.579102 672.938965,792.062744 672.855774,790.789612 
	C671.282654,778.035461 669.806213,766.038147 668.260925,753.481506 
	C672.570068,754.065430 675.637939,754.481140 678.705750,754.896851 
z"/>
<path fill="#FEFDFD" opacity="1.000000" stroke="none" 
	d="
M160.718994,180.119995 
	C168.308655,180.135986 175.898361,180.144058 183.487976,180.173004 
	C185.643127,180.181213 187.798050,180.250183 190.586182,180.352356 
	C191.656647,180.328262 192.094009,180.243134 192.531372,180.158005 
	C193.830154,180.283813 195.128952,180.409622 197.177643,180.519958 
	C208.954208,180.548767 219.980835,180.593033 231.465469,180.744293 
	C281.971741,180.975128 332.020020,181.144699 382.068359,181.192825 
	C395.688843,181.205917 409.309692,180.853043 423.365723,180.752655 
	C425.260986,180.700546 426.720886,180.563919 428.502319,180.536118 
	C429.709686,180.497772 430.595520,180.350586 431.481354,180.203400 
	C440.359955,178.994171 449.224548,177.658325 458.127747,176.670776 
	C460.179840,176.443161 462.855286,176.757431 464.410492,177.928802 
	C477.176392,187.543991 489.775909,197.381989 502.312042,207.296417 
	C503.256500,208.043350 504.135834,210.351166 503.678741,211.176376 
	C490.862885,234.313324 488.261047,260.597260 480.847046,285.372192 
	C466.983124,331.700500 448.583710,375.665283 417.691772,413.512634 
	C386.736572,451.437531 348.879639,480.653107 304.329773,500.732544 
	C286.946716,508.567413 268.524414,514.112000 250.491364,520.461060 
	C248.973572,520.995361 246.010971,520.349609 245.074860,519.173462 
	C231.398178,501.989166 217.950531,484.622589 204.463654,467.287476 
	C204.176285,466.918091 204.070419,466.407471 203.369568,464.771820 
	C206.703323,464.158722 209.722565,463.790558 212.641129,463.033997 
	C224.378632,459.991241 236.455780,457.794769 247.713211,453.476013 
	C263.344696,447.479218 278.352448,439.856567 294.208252,432.606995 
	C297.566467,430.545013 300.343658,428.806030 303.120850,427.067017 
	C303.120819,427.066986 303.053741,427.043427 303.365417,427.031006 
	C304.518433,426.392181 305.359772,425.765839 306.201111,425.139496 
	C306.201111,425.139496 306.117737,425.117340 306.457764,425.090271 
	C311.343567,421.893005 315.889313,418.722809 320.435059,415.552612 
	C320.361725,415.376953 320.288361,415.201294 320.594391,415.178589 
	C321.387360,414.938995 321.800964,414.546387 322.214539,414.153809 
	C322.214569,414.153809 322.138947,414.138977 322.450378,414.080597 
	C323.908661,413.061249 325.055481,412.100250 326.202301,411.139282 
	C326.202301,411.139282 326.117676,411.121735 326.428680,411.077881 
	C327.880157,410.058472 329.020660,409.082916 330.161133,408.107361 
	C330.161133,408.107361 330.074036,408.087952 330.338623,408.048950 
	C330.829285,407.717010 331.055328,407.424042 331.281403,407.131104 
	C331.281403,407.131104 331.163788,407.128876 331.481506,407.081848 
	C333.276459,405.747101 334.753754,404.459351 336.231049,403.171600 
	C336.231049,403.171600 336.150909,403.156952 336.467346,403.087585 
	C338.584106,401.387726 340.384430,399.757294 342.184753,398.126831 
	C342.184753,398.126831 342.081146,398.108093 342.342743,398.068298 
	C342.823700,397.735046 343.043030,397.441620 343.262390,397.148163 
	C343.262390,397.148163 343.172882,397.144470 343.483398,397.060669 
	C345.650543,395.104614 347.507172,393.232391 349.363800,391.360168 
	C349.363800,391.360168 349.220306,391.235596 349.518219,391.216064 
	C350.022400,390.911194 350.228699,390.625793 350.434998,390.340393 
	C350.434998,390.340424 350.305725,390.294006 350.642883,390.191589 
	C353.732727,387.115753 356.485413,384.142334 359.238098,381.168884 
	C359.238129,381.168915 359.115356,381.154877 359.379272,381.098022 
	C359.843292,380.719543 360.043365,380.397919 360.243469,380.076294 
	C360.243439,380.076294 360.084961,380.083557 360.356750,380.045410 
	C360.804413,379.675720 360.980286,379.344238 361.156158,379.012726 
	C361.156158,379.012726 361.012634,379.028076 361.292542,379.001892 
	C361.760193,378.654694 361.947906,378.333679 362.135620,378.012634 
	C362.135620,378.012634 362.035889,378.027435 362.300995,377.959015 
	C362.890961,377.431427 363.215790,376.972260 363.540649,376.513123 
	C363.540649,376.513123 363.470490,376.406708 363.791748,376.244202 
	C366.449799,373.074921 368.786591,370.068115 371.123413,367.061340 
	C371.123413,367.061340 371.051270,367.054199 371.354858,366.920715 
	C374.132782,363.199280 376.607117,359.611328 379.081451,356.023376 
	C379.081451,356.023376 379.014862,356.029205 379.300842,355.857117 
	C401.781738,321.046295 416.644196,283.589844 422.870697,242.832611 
	C422.983612,242.093582 422.271698,241.228500 421.481995,240.377228 
	C388.726410,240.364929 356.433533,240.406708 324.140625,240.428268 
	C270.706238,240.463943 217.271805,240.509338 163.837662,240.408813 
	C162.170761,240.405670 160.506821,238.836441 158.924713,237.537811 
	C159.578278,218.092194 160.148636,199.106094 160.718994,180.119995 
z"/>
<path fill="#FEFDFD" opacity="1.000000" stroke="none" 
	d="
M404.737610,583.689331 
	C404.737610,583.689331 404.640564,583.808472 404.450562,583.504639 
	C402.248901,582.343079 400.237213,581.485291 398.225555,580.627502 
	C398.225555,580.627502 398.198883,580.742188 398.085876,580.439819 
	C397.106995,579.597778 396.241150,579.058105 395.375305,578.518372 
	C395.375305,578.518372 395.359375,578.617371 395.248871,578.338013 
	C394.181183,577.263184 393.223999,576.467773 392.266815,575.672363 
	C392.266815,575.672363 392.240967,575.798828 392.204163,575.527283 
	C391.857971,575.035461 391.548584,574.815186 391.239197,574.594910 
	C391.239197,574.594910 391.225708,574.780212 391.242798,574.515381 
	C391.003052,574.008118 390.746185,573.765747 390.489319,573.523376 
	C390.489288,573.523376 390.269318,573.800110 390.271423,573.418945 
	C389.868347,572.657104 389.463226,572.276428 389.058105,571.895752 
	C389.058105,571.895752 389.044128,571.965149 389.024231,571.644775 
	C388.364288,570.519958 387.724243,569.715454 387.084198,568.910950 
	C382.441010,560.164856 381.200226,551.149170 385.025146,541.121155 
	C385.115204,540.336182 385.111420,540.169556 385.107605,540.002930 
	C385.107605,540.002930 385.026855,540.038452 385.277100,539.875427 
	C385.716705,539.139404 385.906067,538.566406 386.095428,537.993408 
	C386.095428,537.993408 386.025269,538.014099 386.281708,537.861938 
	C386.882538,536.959778 387.226959,536.209900 387.571381,535.459961 
	C387.571381,535.459961 387.445068,535.020142 387.699402,535.074463 
	C388.071533,534.806213 388.189331,534.483521 388.307098,534.160889 
	C388.307098,534.160889 388.208557,534.166260 388.465942,534.086304 
	C389.004272,533.522644 389.285187,533.038879 389.566132,532.555176 
	C389.566132,532.555176 389.602386,532.520569 389.805206,532.365723 
	C390.237061,531.987427 390.380219,531.718384 390.437531,531.403748 
	C390.437531,531.403748 390.221405,531.235413 390.580505,531.167603 
	C392.065125,529.835693 393.190613,528.571533 394.316101,527.307434 
	C394.316101,527.307434 394.214142,527.254150 394.550629,527.184875 
	C396.676605,525.810242 398.466095,524.504883 400.255585,523.199585 
	C400.255585,523.199585 400.135132,523.168274 400.460022,523.169495 
	C401.968079,522.570129 403.151245,521.969543 404.334412,521.369019 
	C404.334412,521.369019 404.211945,521.326233 404.624023,521.307190 
	C415.591736,518.014893 425.532043,519.312927 434.841187,525.300049 
	C434.841187,525.300049 434.842651,525.151062 434.902649,525.412964 
	C435.302185,525.841187 435.641724,526.007568 435.981262,526.173889 
	C435.981262,526.173889 435.957336,526.053711 436.020203,526.323975 
	C436.549438,526.914185 437.015839,527.234131 437.482239,527.554138 
	C437.660126,527.404968 437.837982,527.255798 437.905579,527.584595 
	C438.407928,528.532837 439.020569,529.003235 439.633240,529.473633 
	C439.633240,529.473633 439.648926,529.349243 439.655945,529.588501 
	C439.821533,530.120178 440.051758,530.336304 440.353638,530.476074 
	C440.353638,530.476074 440.371521,530.639221 440.511841,530.820312 
	C440.779907,531.211914 440.961090,531.354614 441.195679,531.429504 
	C441.195679,531.429504 441.191589,531.685730 441.436829,531.975647 
	C442.233612,532.991577 442.785187,533.717651 443.336761,534.443665 
	C443.336761,534.443665 443.329681,534.547302 443.497925,534.912476 
	C451.044250,549.544373 449.452515,564.084106 439.097778,574.932068 
	C429.518707,584.967529 417.756439,586.909607 404.737610,583.689331 
z"/>
<path fill="#C14131" opacity="1.000000" stroke="none" 
	d="
M158.841492,237.997330 
	C160.506821,238.836441 162.170761,240.405670 163.837662,240.408813 
	C217.271805,240.509338 270.706238,240.463943 324.140625,240.428268 
	C356.433533,240.406708 388.726410,240.364929 421.450134,240.587463 
	C421.650757,241.187332 421.420563,241.531998 421.190369,241.876648 
	C412.510834,241.990524 403.831543,242.128693 395.151703,242.211426 
	C386.537109,242.293533 377.921875,242.367813 369.307068,242.355057 
	C362.740662,242.345322 356.174072,242.099655 349.608276,242.127991 
	C339.677582,242.170822 329.747711,242.417770 319.817047,242.455841 
	C316.528595,242.468430 313.238831,241.939667 309.949402,241.936905 
	C265.697174,241.899734 221.444931,241.903656 177.192688,241.927643 
	C173.723984,241.929520 170.151718,241.679062 166.813904,242.403900 
	C162.926224,243.248138 160.087357,242.110245 157.554306,239.153473 
	C158.058929,238.480087 158.450211,238.238708 158.841492,237.997330 
z"/>
<path fill="#DF2810" opacity="1.000000" stroke="none" 
	d="
M428.180817,180.427277 
	C426.720886,180.563919 425.260986,180.700546 423.001648,180.579117 
	C421.045654,180.224228 419.889069,180.043259 418.732452,180.042648 
	C357.787872,180.010315 296.843292,179.988098 235.898727,180.002426 
	C234.268265,180.002823 232.637894,180.416397 231.007477,180.637314 
	C219.980835,180.593033 208.954208,180.548767 197.477478,180.376526 
	C198.955460,179.502274 200.882233,178.107864 202.811752,178.104050 
	C258.911316,177.992798 315.011139,178.021805 371.110901,178.024933 
	C388.265015,178.025894 405.419434,177.970062 422.572937,178.069611 
	C424.821747,178.082657 427.066040,178.869064 429.375977,179.593246 
	C429.019928,180.068558 428.600372,180.247925 428.180817,180.427277 
z"/>
<path fill="#C14131" opacity="1.000000" stroke="none" 
	d="
M819.276917,720.993347 
	C823.134216,684.135010 827.153442,647.292542 830.783447,610.411865 
	C832.720642,590.729919 833.859863,570.970398 835.649780,551.272339 
	C836.056580,546.795532 835.114746,544.351990 830.626465,542.669067 
	C823.955017,540.167480 817.605957,536.806213 810.907471,533.545532 
	C818.784546,536.583801 826.972290,539.676819 834.879395,543.370544 
	C836.441589,544.100342 837.858826,547.193665 837.752441,549.108582 
	C837.071594,561.359680 836.660706,573.697021 834.782532,585.791931 
	C832.550659,600.164490 832.930115,614.679504 831.059326,629.050476 
	C829.132751,643.849060 827.899658,658.737488 826.320496,673.582031 
	C824.899048,686.944214 823.430359,700.301392 821.955322,713.657776 
	C821.718872,715.798828 821.339539,717.923950 820.701538,720.494751 
	C820.010132,720.953125 819.643555,720.973267 819.276917,720.993347 
z"/>
<path fill="#B63826" opacity="1.000000" stroke="none" 
	d="
M507.545807,547.211426 
	C507.891022,559.620728 507.891022,572.189758 507.891022,584.818115 
	C541.753418,584.818115 575.762268,584.818115 610.344727,584.818115 
	C609.932739,587.774353 609.551880,590.507874 609.060303,593.603394 
	C608.710754,591.577637 608.471924,589.189880 608.181641,586.287659 
	C606.369812,586.195435 604.427551,586.011780 602.485168,586.010437 
	C578.529358,585.993713 554.573303,585.940002 530.617981,586.050903 
	C524.487732,586.079285 518.358582,586.625610 512.231567,586.980042 
	C507.925964,587.229065 505.818085,585.664734 505.944122,580.943054 
	C506.201538,571.300720 505.993134,561.646667 506.107086,551.999023 
	C506.125366,550.452332 506.819122,548.913574 507.545807,547.211426 
z"/>
<path fill="#B63826" opacity="1.000000" stroke="none" 
	d="
M421.150085,242.306488 
	C421.420563,241.531998 421.650757,241.187332 421.912842,240.632446 
	C422.271698,241.228500 422.983612,242.093582 422.870697,242.832611 
	C416.644196,283.589844 401.781738,321.046295 379.315125,355.887390 
	C379.802246,353.949890 380.360901,351.712158 381.351715,349.685760 
	C389.351837,333.324707 397.480377,317.026154 405.403107,300.627991 
	C406.059143,299.270203 405.489807,297.320374 405.489807,294.995361 
	C405.994415,294.658447 407.216064,293.842804 409.781860,292.129730 
	C408.384766,291.657501 407.503174,291.359497 406.621582,291.061523 
	C407.147156,291.158539 407.672729,291.255554 408.198303,291.352570 
	C410.094208,286.487213 412.538910,281.756714 413.774292,276.729065 
	C416.539154,265.476685 418.701874,254.076385 421.150085,242.306488 
z"/>
<path fill="#B63826" opacity="1.000000" stroke="none" 
	d="
M771.510681,615.148193 
	C770.946960,626.015137 770.448792,636.975098 768.978760,647.803162 
	C765.242676,675.322937 761.232422,702.808777 756.935425,730.246155 
	C756.104431,735.552612 753.472168,740.576904 751.394775,745.953125 
	C752.915283,739.474487 755.358398,732.871887 756.388184,726.055725 
	C759.581055,704.923218 762.341919,683.723022 765.056213,662.521667 
	C766.415100,651.907593 767.344177,641.237488 768.393555,630.585449 
	C768.750977,626.956299 768.714722,623.282715 769.194275,619.674072 
	C769.401123,618.117981 770.461182,616.675354 771.510681,615.148193 
z"/>
<path fill="#B63826" opacity="1.000000" stroke="none" 
	d="
M657.248169,653.137573 
	C658.891541,646.142639 661.113037,639.004089 662.771057,631.736938 
	C666.312927,616.212830 669.562988,600.622070 672.898743,585.215088 
	C705.818298,585.215088 738.692017,585.215088 771.835327,585.551025 
	C769.192383,586.005676 766.279663,586.231628 763.367310,586.226624 
	C734.776306,586.177307 706.184998,586.127319 677.594543,585.962280 
	C674.238464,585.942932 673.675781,587.657166 673.047852,590.442139 
	C668.564087,610.328125 663.881897,630.169495 659.199036,650.010010 
	C658.952393,651.055115 658.127014,651.963623 657.248169,653.137573 
z"/>
<path fill="#DF2810" opacity="1.000000" stroke="none" 
	d="
M770.663818,528.723022 
	C740.451721,528.956055 709.943359,528.957336 679.381104,528.315674 
	C679.632507,525.808533 679.937866,523.944275 680.243286,522.080017 
	C682.199524,527.748413 686.860718,527.073425 691.432617,527.044617 
	C711.548523,526.918030 731.666321,526.789673 751.781189,526.947693 
	C757.980347,526.996399 764.172363,527.951294 770.663818,528.723022 
z"/>
<path fill="#B63826" opacity="1.000000" stroke="none" 
	d="
M676.132202,811.281067 
	C684.538757,812.140564 693.036438,813.513123 701.575745,814.538757 
	C723.256409,817.142700 744.917175,817.584900 766.583374,814.037842 
	C775.842407,812.521912 784.120178,809.178589 791.646179,803.070679 
	C788.576721,809.972717 781.622864,811.871582 775.160339,813.705078 
	C768.565002,815.576355 761.564392,816.018921 753.850647,817.105835 
	C739.675293,817.132263 726.390564,817.139709 713.105774,817.147217 
	C702.238464,816.036438 691.363525,814.991150 680.512634,813.738464 
	C679.028015,813.567078 677.662781,812.362488 676.132202,811.281067 
z"/>
<path fill="#B63826" opacity="1.000000" stroke="none" 
	d="
M819.096069,721.389465 
	C819.643555,720.973267 820.010132,720.953125 820.649658,720.898438 
	C818.797852,734.539612 816.770569,748.231445 814.519226,761.886292 
	C812.550659,773.826294 808.172913,784.858643 801.078308,794.708435 
	C799.763000,796.534485 797.864380,797.940369 795.885376,799.581665 
	C813.692139,776.789978 815.998291,749.196045 819.096069,721.389465 
z"/>
<path fill="#B63826" opacity="1.000000" stroke="none" 
	d="
M405.000427,583.992920 
	C417.756439,586.909607 429.518707,584.967529 439.097778,574.932068 
	C449.452515,564.084106 451.044250,549.544373 443.543152,534.938049 
	C448.351379,536.798584 448.433075,541.780884 449.254120,545.889648 
	C454.199036,570.635071 431.297089,591.093628 408.844482,585.910095 
	C407.593262,585.621216 406.454437,584.845581 405.000427,583.992920 
z"/>
<path fill="#C14131" opacity="1.000000" stroke="none" 
	d="
M680.216003,521.656250 
	C679.937866,523.944275 679.632507,525.808533 679.076050,528.007812 
	C680.341858,509.350311 681.822327,490.354736 683.403503,471.367493 
	C683.759216,467.096191 684.466309,462.854126 684.998657,458.094635 
	C684.985596,457.590668 685.025818,457.531250 685.025818,457.531250 
	C684.932190,463.922424 685.173523,470.339874 684.674133,476.699188 
	C683.675049,489.423553 682.280457,502.117065 681.023499,514.820740 
	C680.811279,516.964539 680.470215,519.095581 680.216003,521.656250 
z"/>
<path fill="#B63826" opacity="1.000000" stroke="none" 
	d="
M618.752563,455.186584 
	C619.111633,467.836823 619.436035,480.622589 619.029724,493.385040 
	C618.697083,503.831604 617.493713,514.250427 616.337952,524.536438 
	C615.990723,523.585144 615.981873,522.778870 615.973083,521.972656 
	C616.657104,504.556213 617.398865,487.141724 617.973755,469.721680 
	C618.082397,466.429291 617.380737,463.116577 617.344971,459.810120 
	C617.328735,458.314728 618.027466,456.811646 618.752563,455.186584 
z"/>
<path fill="#DF2810" opacity="1.000000" stroke="none" 
	d="
M615.754028,522.281372 
	C615.981873,522.778870 615.990723,523.585144 616.013123,524.795654 
	C615.945129,526.417786 615.863464,527.635498 615.043823,528.675720 
	C613.165771,528.333923 612.026001,528.028076 610.885620,528.026184 
	C581.665527,527.978516 552.445435,527.962585 523.225281,527.941162 
	C518.805237,527.708435 514.385132,527.475769 509.540314,527.276672 
	C513.302490,526.941284 517.484741,526.368347 521.678040,526.270508 
	C524.800171,526.197693 527.936218,526.965210 531.066956,526.972778 
	C557.160156,527.035828 583.253723,526.957703 609.346558,527.072083 
	C612.797485,527.087158 615.150696,526.413269 615.754028,522.281372 
z"/>
<path fill="#B63826" opacity="1.000000" stroke="none" 
	d="
M684.931824,457.184631 
	C685.025818,457.531250 684.985596,457.590668 685.008911,457.616577 
	C675.433838,457.187134 665.838013,456.663544 656.236328,456.293610 
	C644.140930,455.827576 632.040710,455.487091 619.495117,455.095245 
	C620.039978,454.575592 621.042786,453.578857 622.023010,453.600494 
	C641.884277,454.039185 661.743896,454.568909 681.600159,455.195953 
	C682.695557,455.230560 683.759338,456.267609 684.931824,457.184631 
z"/>
<path fill="#B63826" opacity="1.000000" stroke="none" 
	d="
M158.924713,237.537811 
	C158.450211,238.238708 158.058929,238.480087 157.471832,238.826508 
	C157.538651,221.341568 157.741592,203.750229 158.147675,186.163559 
	C158.192856,184.206650 159.394379,182.276459 160.389313,180.226929 
	C160.148636,199.106094 159.578278,218.092194 158.924713,237.537811 
z"/>
<path fill="#DF2810" opacity="1.000000" stroke="none" 
	d="
M689.086670,756.583923 
	C688.536194,756.497070 687.985657,756.410217 687.206787,756.162720 
	C689.501404,755.361023 692.044312,754.101868 694.544067,754.182312 
	C707.722717,754.606628 720.890442,755.368713 734.531006,756.006836 
	C735.000000,756.000000 735.001709,756.000854 735.001709,756.000854 
	C734.998169,756.410706 734.994568,756.820496 734.989380,757.537659 
	C727.618591,758.239319 720.249390,758.633606 712.116943,758.730530 
	C703.931335,757.816711 696.508972,757.200317 689.086670,756.583923 
z"/>
<path fill="#B63826" opacity="1.000000" stroke="none" 
	d="
M678.604187,754.577148 
	C675.637939,754.481140 672.570068,754.065430 668.260925,753.481506 
	C669.806213,766.038147 671.282654,778.035461 672.737488,790.419067 
	C672.131897,790.164978 671.121704,789.581238 671.028137,788.875854 
	C669.661011,778.570801 668.366699,768.255310 667.166321,757.929260 
	C666.671265,753.670349 668.860168,751.595337 673.046997,752.360840 
	C674.918579,752.703003 676.687256,753.607849 678.604187,754.577148 
z"/>
<path fill="#B63826" opacity="1.000000" stroke="none" 
	d="
M434.726929,524.966675 
	C425.532043,519.312927 415.591736,518.014893 404.612885,521.371094 
	C406.024353,520.520874 407.773804,519.054871 409.708344,518.745361 
	C418.758331,517.297363 427.443756,517.900085 434.726929,524.966675 
z"/>
<path fill="#DF2810" opacity="1.000000" stroke="none" 
	d="
M790.901733,525.654724 
	C787.142578,526.947571 783.300049,528.078064 779.392761,528.901611 
	C777.641541,529.270813 775.760803,529.025146 773.484985,528.999634 
	C773.094299,528.789124 773.135925,528.518616 773.223572,528.502747 
	C779.077393,527.444519 784.934814,526.406860 790.901733,525.654724 
z"/>
<path fill="#DF2810" opacity="1.000000" stroke="none" 
	d="
M713.444580,817.358765 
	C726.390564,817.139709 739.675293,817.132263 753.413879,817.135986 
	C751.604370,817.436523 749.339844,817.982300 747.077942,817.971619 
	C735.979431,817.919067 724.881531,817.718567 713.444580,817.358765 
z"/>
<path fill="#B63826" opacity="1.000000" stroke="none" 
	d="
M320.062317,415.474213 
	C315.889313,418.722809 311.343567,421.893005 306.450989,425.132874 
	C310.632660,421.933655 315.161133,418.664734 320.062317,415.474213 
z"/>
<path fill="#B63826" opacity="1.000000" stroke="none" 
	d="
M672.713501,793.419312 
	C673.921448,798.788574 674.930664,804.481628 676.006714,810.577759 
	C671.984741,805.834167 672.347595,799.768494 672.713501,793.419312 
z"/>
<path fill="#B63826" opacity="1.000000" stroke="none" 
	d="
M378.752563,356.112610 
	C376.607117,359.611328 374.132782,363.199280 371.365479,366.955383 
	C371.630676,365.641876 372.188812,364.160248 373.010223,362.312164 
	C373.273529,361.945679 373.216248,361.622437 373.216248,361.622437 
	C373.216248,361.622437 372.885498,361.857544 372.885498,361.857544 
	C372.599640,361.421509 372.047302,360.615143 372.065674,360.601990 
	C374.157440,359.096985 376.291718,357.651031 378.752563,356.112610 
z"/>
<path fill="#B63826" opacity="1.000000" stroke="none" 
	d="
M358.882629,381.196350 
	C356.485413,384.142334 353.732727,387.115753 350.685791,390.245209 
	C353.103394,387.342102 355.815277,384.282959 358.882629,381.196350 
z"/>
<path fill="#B63826" opacity="1.000000" stroke="none" 
	d="
M370.764557,367.072845 
	C368.786591,370.068115 366.449799,373.074921 363.849365,376.271454 
	C365.859070,373.335602 368.132416,370.209991 370.764557,367.072845 
z"/>
<path fill="#B63826" opacity="1.000000" stroke="none" 
	d="
M302.730957,427.055237 
	C300.343658,428.806030 297.566467,430.545013 294.502655,432.361145 
	C295.423248,428.379211 298.858185,427.675201 302.730957,427.055237 
z"/>
<path fill="#B63826" opacity="1.000000" stroke="none" 
	d="
M348.999664,391.346741 
	C347.507172,393.232391 345.650543,395.104614 343.487610,397.105225 
	C344.999390,395.266876 346.817474,393.300110 348.999664,391.346741 
z"/>
<path fill="#B63826" opacity="1.000000" stroke="none" 
	d="
M341.817810,398.125122 
	C340.384430,399.757294 338.584106,401.387726 336.465881,403.128296 
	C337.915588,401.533356 339.683197,399.828369 341.817810,398.125122 
z"/>
<path fill="#C14131" opacity="1.000000" stroke="none" 
	d="
M810.633789,533.058777 
	C808.811096,532.533875 806.785645,531.705566 804.505005,530.620972 
	C806.310242,531.161621 808.370667,531.958435 810.633789,533.058777 
z"/>
<path fill="#B63826" opacity="1.000000" stroke="none" 
	d="
M398.342468,580.986572 
	C400.237213,581.485291 402.248901,582.343079 404.518433,583.468567 
	C402.670624,582.939453 400.565002,582.142578 398.342468,580.986572 
z"/>
<path fill="#B63826" opacity="1.000000" stroke="none" 
	d="
M335.863892,403.153564 
	C334.753754,404.459351 333.276459,405.747101 331.486023,407.140503 
	C332.614166,405.875946 334.055450,404.505737 335.863892,403.153564 
z"/>
<path fill="#B63826" opacity="1.000000" stroke="none" 
	d="
M399.890747,523.197083 
	C398.466095,524.504883 396.676605,525.810242 394.573608,527.237610 
	C396.015381,525.971252 397.770660,524.582947 399.890747,523.197083 
z"/>
<path fill="#B63826" opacity="1.000000" stroke="none" 
	d="
M393.962402,527.295776 
	C393.190613,528.571533 392.065125,529.835693 390.670410,531.270996 
	C391.470367,530.056152 392.539551,528.670166 393.962402,527.295776 
z"/>
<path fill="#B63826" opacity="1.000000" stroke="none" 
	d="
M325.829712,411.124451 
	C325.055481,412.100250 323.908661,413.061249 322.452332,414.119049 
	C323.247620,413.180481 324.352386,412.145081 325.829712,411.124451 
z"/>
<path fill="#B63826" opacity="1.000000" stroke="none" 
	d="
M329.806793,408.137482 
	C329.020660,409.082916 327.880157,410.058472 326.424377,411.120880 
	C327.223541,410.194336 328.337982,409.180969 329.806793,408.137482 
z"/>
<path fill="#B63826" opacity="1.000000" stroke="none" 
	d="
M403.966858,521.295410 
	C403.151245,521.969543 401.968079,522.570129 400.450012,523.230896 
	C401.276520,522.601318 402.437927,521.911560 403.966858,521.295410 
z"/>
<path fill="#B63826" opacity="1.000000" stroke="none" 
	d="
M392.284210,576.018982 
	C393.223999,576.467773 394.181183,577.263184 395.298645,578.331787 
	C394.406494,577.858521 393.354065,577.112061 392.284210,576.018982 
z"/>
<path fill="#B63826" opacity="1.000000" stroke="none" 
	d="
M750.147949,747.557251 
	C749.963684,748.356873 749.438049,749.188599 748.668213,750.187012 
	C748.884827,749.432129 749.345703,748.510742 750.147949,747.557251 
z"/>
<path fill="#B63826" opacity="1.000000" stroke="none" 
	d="
M387.077454,569.256226 
	C387.724243,569.715454 388.364288,570.519958 389.058838,571.637207 
	C388.432404,571.167175 387.751526,570.384338 387.077454,569.256226 
z"/>
<path fill="#B63826" opacity="1.000000" stroke="none" 
	d="
M443.427399,534.104248 
	C442.785187,533.717651 442.233612,532.991577 441.557617,532.018188 
	C442.128174,532.435486 442.823090,533.100159 443.427399,534.104248 
z"/>
<path fill="#B63826" opacity="1.000000" stroke="none" 
	d="
M305.847015,425.122925 
	C305.359772,425.765839 304.518433,426.392181 303.359802,427.066101 
	C303.859314,426.444519 304.676117,425.775421 305.847015,425.122925 
z"/>
<path fill="#B63826" opacity="1.000000" stroke="none" 
	d="
M395.445251,578.858704 
	C396.241150,579.058105 397.106995,579.597778 398.131195,580.402344 
	C397.364777,580.177734 396.440002,579.688354 395.445251,578.858704 
z"/>
<path fill="#B63826" opacity="1.000000" stroke="none" 
	d="
M387.257111,535.575195 
	C387.226959,536.209900 386.882538,536.959778 386.292786,537.896729 
	C386.345917,537.286011 386.644379,536.488220 387.257111,535.575195 
z"/>
<path fill="#B63826" opacity="1.000000" stroke="none" 
	d="
M793.787720,801.500427 
	C793.972534,800.917175 794.491455,800.307739 795.305176,799.622070 
	C795.107239,800.188660 794.614441,800.831421 793.787720,801.500427 
z"/>
<path fill="#B63826" opacity="1.000000" stroke="none" 
	d="
M428.502319,180.536118 
	C428.600372,180.247925 429.019928,180.068558 429.662598,179.828033 
	C430.150146,179.844833 430.414642,179.922806 431.080261,180.102081 
	C430.595520,180.350586 429.709686,180.497772 428.502319,180.536118 
z"/>
<path fill="#C14131" opacity="1.000000" stroke="none" 
	d="
M803.841736,529.982666 
	C803.270264,529.953857 802.511047,529.664673 801.524292,529.171509 
	C802.082581,529.219116 802.868225,529.470642 803.841736,529.982666 
z"/>
<path fill="#B63826" opacity="1.000000" stroke="none" 
	d="
M439.562103,529.153198 
	C439.020569,529.003235 438.407928,528.532837 437.640259,527.812683 
	C438.153809,527.986206 438.822388,528.409546 439.562103,529.153198 
z"/>
<path fill="#B63826" opacity="1.000000" stroke="none" 
	d="
M389.273254,532.635742 
	C389.285187,533.038879 389.004272,533.522644 388.475800,534.134644 
	C388.478973,533.747375 388.729675,533.231873 389.273254,532.635742 
z"/>
<path fill="#B63826" opacity="1.000000" stroke="none" 
	d="
M385.853210,538.187500 
	C385.906067,538.566406 385.716705,539.139404 385.295837,539.915344 
	C385.246552,539.539368 385.428772,538.960449 385.853210,538.187500 
z"/>
<path fill="#B63826" opacity="1.000000" stroke="none" 
	d="
M321.906036,414.195801 
	C321.800964,414.546387 321.387360,414.938995 320.697784,415.442139 
	C320.813721,415.114441 321.205627,414.676117 321.906036,414.195801 
z"/>
<path fill="#B63826" opacity="1.000000" stroke="none" 
	d="
M792.273193,802.917603 
	C792.319031,802.533813 792.666687,802.091125 793.285767,801.540771 
	C793.229858,801.908203 792.902466,802.383423 792.273193,802.917603 
z"/>
<path fill="#B63826" opacity="1.000000" stroke="none" 
	d="
M389.111084,572.195801 
	C389.463226,572.276428 389.868347,572.657104 390.399109,573.296753 
	C390.071198,573.202393 389.617615,572.849121 389.111084,572.195801 
z"/>
<path fill="#B63826" opacity="1.000000" stroke="none" 
	d="
M363.248749,376.585632 
	C363.215790,376.972260 362.890961,377.431427 362.309601,378.008667 
	C362.354340,377.637207 362.655609,377.147675 363.248749,376.585632 
z"/>
<path fill="#B63826" opacity="1.000000" stroke="none" 
	d="
M437.409271,527.258789 
	C437.015839,527.234131 436.549438,526.914185 435.960510,526.337708 
	C436.337402,526.375305 436.836853,526.669373 437.409271,527.258789 
z"/>
<path fill="#B63826" opacity="1.000000" stroke="none" 
	d="
M747.233154,751.492188 
	C747.191956,751.834290 746.895020,752.204895 746.371582,752.627930 
	C746.422546,752.293823 746.700012,751.907288 747.233154,751.492188 
z"/>
<path fill="#DF2810" opacity="1.000000" stroke="none" 
	d="
M509.029419,527.244446 
	C509.038330,527.385437 508.846008,527.752319 508.377686,528.277588 
	C508.343811,528.114197 508.585999,527.792236 509.029419,527.244446 
z"/>
<path fill="#B63826" opacity="1.000000" stroke="none" 
	d="
M192.114258,180.148636 
	C192.094009,180.243134 191.656647,180.328262 191.040970,180.275803 
	C191.140808,180.138550 191.418976,180.138901 192.114258,180.148636 
z"/>
<path fill="#B63826" opacity="1.000000" stroke="none" 
	d="
M748.155823,750.494019 
	C748.223877,750.677063 748.057678,750.964294 747.660889,751.368530 
	C747.593994,751.189697 747.757812,750.893921 748.155823,750.494019 
z"/>
<path fill="#DF2810" opacity="1.000000" stroke="none" 
	d="
M734.999512,755.999084 
	C734.999023,755.998169 735.148071,755.764404 735.148071,755.764404 
	C735.148071,755.764404 735.132019,755.927734 735.066895,755.964294 
	C735.001709,756.000854 735.000000,756.000000 734.999512,755.999084 
z"/>
<path fill="#B63826" opacity="1.000000" stroke="none" 
	d="
M435.814758,525.949707 
	C435.641724,526.007568 435.302185,525.841187 434.828339,525.418152 
	C435.012085,525.349426 435.330170,525.537476 435.814758,525.949707 
z"/>
<path fill="#B63826" opacity="1.000000" stroke="none" 
	d="
M331.038147,407.255493 
	C331.055328,407.424042 330.829285,407.717010 330.331970,408.093079 
	C330.305481,407.910767 330.550201,407.645325 331.038147,407.255493 
z"/>
<path fill="#B63826" opacity="1.000000" stroke="none" 
	d="
M388.097137,534.320923 
	C388.189331,534.483521 388.071533,534.806213 387.751526,535.295593 
	C387.661957,535.135193 387.774567,534.808105 388.097137,534.320923 
z"/>
<path fill="#B63826" opacity="1.000000" stroke="none" 
	d="
M750.995361,746.205078 
	C751.099731,746.354797 751.020874,746.700317 750.751343,747.233521 
	C750.644409,747.081055 750.728271,746.740906 750.995361,746.205078 
z"/>
<path fill="#B63826" opacity="1.000000" stroke="none" 
	d="
M343.018829,397.270233 
	C343.043030,397.441620 342.823700,397.735046 342.337006,398.120605 
	C342.304871,397.939270 342.540070,397.665802 343.018829,397.270233 
z"/>
<path fill="#B63826" opacity="1.000000" stroke="none" 
	d="
M361.904114,378.156677 
	C361.947906,378.333679 361.760193,378.654694 361.300964,379.073578 
	C361.243866,378.881226 361.458221,378.590973 361.904114,378.156677 
z"/>
<path fill="#B63826" opacity="1.000000" stroke="none" 
	d="
M360.933350,379.173706 
	C360.980286,379.344238 360.804413,379.675720 360.363586,380.124420 
	C360.302612,379.939301 360.506561,379.636993 360.933350,379.173706 
z"/>
<path fill="#B63826" opacity="1.000000" stroke="none" 
	d="
M360.008911,380.229675 
	C360.043365,380.397919 359.843292,380.719543 359.377502,381.159790 
	C359.332672,380.979980 359.553497,380.681519 360.008911,380.229675 
z"/>
<path fill="#B63826" opacity="1.000000" stroke="none" 
	d="
M440.321808,530.225952 
	C440.051758,530.336304 439.821533,530.120178 439.593506,529.594055 
	C439.779358,529.565552 440.034668,529.770630 440.321808,530.225952 
z"/>
<path fill="#B63826" opacity="1.000000" stroke="none" 
	d="
M441.187195,531.232483 
	C440.961090,531.354614 440.779907,531.211914 440.592468,530.835693 
	C440.832916,530.641968 441.048248,530.763794 441.187195,531.232483 
z"/>
<path fill="#B63826" opacity="1.000000" stroke="none" 
	d="
M391.357117,574.855835 
	C391.548584,574.815186 391.857971,575.035461 392.268555,575.531738 
	C392.071472,575.577393 391.773254,575.347107 391.357117,574.855835 
z"/>
<path fill="#B63826" opacity="1.000000" stroke="none" 
	d="
M390.550842,573.789429 
	C390.746185,573.765747 391.003052,574.008118 391.335693,574.513550 
	C391.145081,574.536255 390.878723,574.295837 390.550842,573.789429 
z"/>
<path fill="#B63826" opacity="1.000000" stroke="none" 
	d="
M390.213348,531.500549 
	C390.380219,531.718384 390.237061,531.987427 389.812561,532.341736 
	C389.593872,532.118164 389.717896,531.826416 390.213348,531.500549 
z"/>
<path fill="#B63826" opacity="1.000000" stroke="none" 
	d="
M384.991394,540.095642 
	C385.111420,540.169556 385.115204,540.336182 385.026855,540.734863 
	C384.703308,540.716003 384.683472,540.456543 384.991394,540.095642 
z"/>
<path fill="#B63826" opacity="1.000000" stroke="none" 
	d="
M350.183716,390.439575 
	C350.228699,390.625793 350.022400,390.911194 349.566406,391.297974 
	C349.521973,391.112488 349.727203,390.825623 350.183716,390.439575 
z"/>
<path fill="#D8331E" opacity="1.000000" stroke="none" 
	d="
M523.590454,528.083984 
	C552.445435,527.962585 581.665527,527.978516 610.885620,528.026184 
	C612.026001,528.028076 613.165771,528.333923 614.663940,528.706909 
	C584.666565,528.686096 554.311096,528.456421 523.590454,528.083984 
z"/>
<path fill="#B63826" opacity="1.000000" stroke="none" 
	d="
M689.481934,756.747925 
	C696.508972,757.200317 703.931335,757.816711 711.650940,758.651978 
	C704.591187,758.217957 697.234192,757.565002 689.481934,756.747925 
z"/>
<path fill="#B63826" opacity="1.000000" stroke="none" 
	d="
M231.465469,180.744293 
	C232.637894,180.416397 234.268265,180.002823 235.898727,180.002426 
	C296.843292,179.988098 357.787872,180.010315 418.732452,180.042648 
	C419.889069,180.043259 421.045654,180.224228 422.566284,180.494598 
	C409.309692,180.853043 395.688843,181.205917 382.068359,181.192825 
	C332.020020,181.144699 281.971741,180.975128 231.465469,180.744293 
z"/>
<path fill="#D8331E" opacity="1.000000" stroke="none" 
	d="
M372.943604,361.919342 
	C372.885498,361.857544 373.216248,361.622437 373.216248,361.622437 
	C373.216248,361.622437 373.273529,361.945679 373.199799,362.021088 
	C373.126068,362.096497 373.001709,361.981140 372.943604,361.919342 
z"/>
</svg>